 <svg width="7" height="6" viewBox="0 0 7 6" fill="none" xmlns="http://www.w3.org/2000/svg">
  <path
    d="M6.594 2.40098C6.594 2.19098 6.51 2.00898 6.342 1.86898C6.174 1.72898 5.978 1.64498 5.768 1.64498C5.488 1.64498 5.124 1.85498 4.69 2.26098C4.382 2.55498 4.046 2.77898 3.696 2.91898C3.724 2.52698 3.836 2.14898 4.004 1.78498C4.2 1.35098 4.312 1.04298 4.312 0.860976C4.312 0.622976 4.228 0.412976 4.088 0.244976C3.92 0.0769759 3.724 -0.00702381 3.5 -0.00702381C3.262 -0.00702381 3.066 0.0769759 2.912 0.244976C2.758 0.412976 2.688 0.622976 2.688 0.860976C2.688 1.04298 2.786 1.35098 2.996 1.78498C3.164 2.14898 3.262 2.52698 3.304 2.91898C2.94 2.77898 2.618 2.55498 2.31 2.26098C1.862 1.85498 1.512 1.64498 1.232 1.64498C1.008 1.64498 0.826 1.72898 0.658 1.86898C0.49 2.00898 0.406 2.19098 0.406 2.40098C0.406 2.68098 0.504 2.89098 0.7 3.04498C0.896 3.21298 1.134 3.28298 1.414 3.28298C1.484 3.28298 1.652 3.26898 1.904 3.24098C2.156 3.21298 2.352 3.19898 2.478 3.19898C2.688 3.19898 2.926 3.22698 3.178 3.26898C2.954 3.52098 2.632 3.77298 2.24 3.99698C1.904 4.19298 1.694 4.33298 1.582 4.43098C1.386 4.62698 1.288 4.86498 1.288 5.11698C1.288 5.34098 1.358 5.53698 1.512 5.67698C1.666 5.84498 1.862 5.91498 2.086 5.91498C2.576 5.91498 2.912 5.48098 3.08 4.61298C3.164 4.16498 3.304 3.78698 3.5 3.49298C3.682 3.78698 3.822 4.16498 3.92 4.61298C4.088 5.48098 4.41 5.91498 4.914 5.91498C5.138 5.91498 5.32 5.84498 5.488 5.67698C5.628 5.53698 5.712 5.34098 5.712 5.11698C5.712 4.86498 5.614 4.62698 5.418 4.43098C5.306 4.33298 5.082 4.19298 4.76 3.99698C4.354 3.77298 4.046 3.52098 3.822 3.26898C4.074 3.22698 4.298 3.19898 4.522 3.19898C4.634 3.19898 4.83 3.21298 5.096 3.24098C5.348 3.26898 5.502 3.28298 5.586 3.28298C5.852 3.28298 6.09 3.21298 6.3 3.04498C6.496 2.89098 6.594 2.68098 6.594 2.40098Z"
    fill="#FF4D4F"
  />
</svg>