<svg width="100%" height="100%" viewBox="0 0 15 15" fill="none" xmlns="http://www.w3.org/2000/svg">
  <g clip-path="url(#clip0_694_45847)">
    <path
      d="M13.5 1.49805H0.5C0.223437 1.49805 0 1.72148 0 1.99805V11.998C0 12.2746 0.223437 12.498 0.5 12.498H13.5C13.7766 12.498 14 12.2746 14 11.998V1.99805C14 1.72148 13.7766 1.49805 13.5 1.49805ZM1.125 2.62305H12.875V4.49805H1.125V2.62305ZM12.875 11.373H1.125V5.87305H12.875V11.373ZM9.17188 10.373H11.75C11.8188 10.373 11.875 10.3168 11.875 10.248V9.12305C11.875 9.0543 11.8188 8.99805 11.75 8.99805H9.17188C9.10312 8.99805 9.04688 9.0543 9.04688 9.12305V10.248C9.04688 10.3168 9.10312 10.373 9.17188 10.373Z"
      fill="black"
      fill-opacity="0.85"
    />
  </g>
  <defs>
    <clipPath id="clip0_694_45847">
      <rect width="14" height="14" fill="white" />
    </clipPath>
  </defs>
</svg>