<svg width="36" height="36" viewBox="0 0 36 36" fill="none" xmlns="http://www.w3.org/2000/svg">
<path d="M11.8927 4.81766H11.5713C11.7481 4.81766 11.8927 4.67302 11.8927 4.49623V4.81766H24.107V4.49623C24.107 4.67302 24.2516 4.81766 24.4284 4.81766H24.107V7.71052H26.9999V4.49623C26.9999 3.07793 25.8467 1.9248 24.4284 1.9248H11.5713C10.153 1.9248 8.99986 3.07793 8.99986 4.49623V7.71052H11.8927V4.81766ZM32.1427 7.71052H3.857C3.14584 7.71052 2.57129 8.28507 2.57129 8.99623V10.2819C2.57129 10.4587 2.71593 10.6034 2.89272 10.6034H5.3195L6.31191 31.6168C6.3762 32.9869 7.50924 34.0677 8.87933 34.0677H27.1204C28.4945 34.0677 29.6235 32.9909 29.6878 31.6168L30.6802 10.6034H33.107C33.2838 10.6034 33.4284 10.4587 33.4284 10.2819V8.99623C33.4284 8.28507 32.8539 7.71052 32.1427 7.71052ZM26.811 31.1748H9.1887L8.21638 10.6034H27.7833L26.811 31.1748Z" fill="white" fill-opacity="0.85"/>
</svg>
