<svg width="100%" height="100%" viewBox="0 0 15 15" fill="none" xmlns="http://www.w3.org/2000/svg">
  <path
    d="M13.125 6.50195H12.25C12.1813 6.50195 12.125 6.5582 12.125 6.62695V11.627H1.875V1.37695H6.875C6.94375 1.37695 7 1.3207 7 1.25195V0.376953C7 0.308203 6.94375 0.251953 6.875 0.251953H1.25C0.973438 0.251953 0.75 0.475391 0.75 0.751953V12.252C0.75 12.5285 0.973438 12.752 1.25 12.752H12.75C13.0266 12.752 13.25 12.5285 13.25 12.252V6.62695C13.25 6.5582 13.1938 6.50195 13.125 6.50195Z"
    fill="black"
    fill-opacity="0.85"
  />
  <path
    d="M4.56083 6.85977L4.53115 8.71758C4.52958 8.85664 4.64208 8.9707 4.78115 8.9707H4.7874L6.63115 8.92539C6.6624 8.92383 6.69365 8.91133 6.71552 8.88945L13.214 2.40508C13.2624 2.35664 13.2624 2.27695 13.214 2.22852L11.2718 0.287891C11.2468 0.262891 11.2155 0.251953 11.1827 0.251953C11.1499 0.251953 11.1186 0.264453 11.0936 0.287891L4.59677 6.77226C4.5742 6.79587 4.56137 6.82711 4.56083 6.85977ZM5.55302 7.22852L11.1827 1.61133L11.889 2.31602L6.25615 7.93633L5.54208 7.95352L5.55302 7.22852Z"
    fill="black"
    fill-opacity="0.85"
  />
</svg>