<svg width="100%" height="100%" viewBox="0 0 24 24" fill="none" xmlns="http://www.w3.org/2000/svg">
  <path fill-rule="evenodd" clip-rule="evenodd" d="M0 3V21H24V3H0Z" fill="#2E42A5" />
  <mask
    id="mask0_268_23873"
    style="mask-type: luminance"
    maskUnits="userSpaceOnUse"
    x="0"
    y="3"
    width="24"
    height="18"
  >
    <path fill-rule="evenodd" clip-rule="evenodd" d="M0 3V21H24V3H0Z" fill="white" />
  </mask>
  <g mask="url(#mask0_268_23873)">
    <path
      d="M-2.67236 19.7138L2.60914 21.9473L24.1191 5.42851L26.9054 2.10901L21.2579 1.36276L12.4844 8.48101L5.42239 13.2773L-2.67236 19.7138Z"
      fill="white"
    />
    <path
      d="M-1.94945 21.279L0.742305 22.575L25.9048 1.80075H22.1263L-1.9502 21.2782L-1.94945 21.279Z"
      fill="#F50100"
    />
    <path
      d="M26.6722 19.7138L21.3907 21.9473L-0.119267 5.42851L-2.90552 2.10901L2.74198 1.36276L11.5155 8.48101L18.5775 13.2773L26.6722 19.7138Z"
      fill="white"
    />
    <path
      d="M26.4922 20.8365L23.8019 22.1333L13.0867 13.2383L9.90966 12.2445L-3.17334 2.12027H0.60441L13.6799 12.0045L17.1532 13.1963L26.4922 20.8373V20.8365Z"
      fill="#F50100"
    />
    <path
      fill-rule="evenodd"
      clip-rule="evenodd"
      d="M14.8335 1.5H9.1665V9H-1.479V15H9.1665V22.5H14.8335V15H25.521V9H14.8335V1.5Z"
      fill="#F50100"
    />
    <mask
      id="mask1_268_23873"
      style="mask-type: luminance"
      maskUnits="userSpaceOnUse"
      x="-2"
      y="1"
      width="28"
      height="22"
    >
      <path
        fill-rule="evenodd"
        clip-rule="evenodd"
        d="M14.8335 1.5H9.1665V9H-1.479V15H9.1665V22.5H14.8335V15H25.521V9H14.8335V1.5Z"
        fill="white"
      />
    </mask>
    <g mask="url(#mask1_268_23873)">
      <path
        d="M9.1665 1.5V0H7.6665V1.5H9.1665ZM14.8335 1.5H16.3335V0H14.8335V1.5ZM9.1665 9V10.5H10.6665V9H9.1665ZM-1.479 9V7.5H-2.979V9H-1.479ZM-1.479 15H-2.979V16.5H-1.479V15ZM9.1665 15H10.6665V13.5H9.1665V15ZM9.1665 22.5H7.6665V24H9.1665V22.5ZM14.8335 22.5V24H16.3335V22.5H14.8335ZM14.8335 15V13.5H13.3335V15H14.8335ZM25.521 15V16.5H27.021V15H25.521ZM25.521 9H27.021V7.5H25.521V9ZM14.8335 9H13.3335V10.5H14.8335V9ZM9.1665 3H14.8335V0H9.1665V3ZM10.6665 9V1.5H7.6665V9H10.6665ZM-1.479 10.5H9.1665V7.5H-1.479V10.5ZM0.0209961 15V9H-2.979V15H0.0209961ZM9.1665 13.5H-1.479V16.5H9.1665V13.5ZM10.6665 22.5V15H7.6665V22.5H10.6665ZM14.8335 21H9.1665V24H14.8335V21ZM13.3335 15V22.5H16.3335V15H13.3335ZM25.521 13.5H14.8335V16.5H25.521V13.5ZM24.021 9V15H27.021V9H24.021ZM14.8335 10.5H25.521V7.5H14.8335V10.5ZM13.3335 1.5V9H16.3335V1.5H13.3335Z"
        fill="white"
      />
    </g>
  </g>
</svg>