<svg width="100%" height="100%" viewBox="0 0 14 14" fill="none" xmlns="http://www.w3.org/2000/svg">
  <g clip-path="url(#clip0_612_13653)">
    <path
      d="M12.349 11.5141C12.3521 11.5094 12.3568 11.5047 12.36 11.5C13.3834 10.2828 13.999 8.71406 13.999 7C13.999 5.28594 13.3834 3.71719 12.3615 2.5C12.3584 2.49531 12.3537 2.49219 12.3506 2.4875C12.3334 2.46719 12.3178 2.44844 12.3006 2.42969C12.2943 2.42188 12.2881 2.41563 12.2818 2.40781L12.2178 2.33437L12.2162 2.33281C12.1928 2.30625 12.1678 2.27969 12.1443 2.25312L12.1428 2.25156C12.0928 2.19844 12.0428 2.14531 11.9912 2.09375L11.9896 2.09219L11.9146 2.01719L11.91 2.0125C11.8865 1.98906 11.8631 1.96719 11.8396 1.94531C11.8318 1.9375 11.824 1.92969 11.8146 1.92188C11.799 1.90625 11.7834 1.89219 11.7678 1.87812C11.7631 1.87344 11.7568 1.86875 11.7521 1.8625C10.5053 0.70625 8.83496 0 6.99902 0C5.16309 0 3.49277 0.70625 2.24434 1.8625C2.23965 1.86719 2.2334 1.87187 2.22871 1.87812C2.21309 1.89219 2.19746 1.90781 2.18184 1.92344C2.17402 1.93125 2.16621 1.93906 2.15684 1.94688C2.1334 1.96875 2.10996 1.99219 2.08652 2.01406L2.08184 2.01875L2.00684 2.09375L2.00527 2.09531C1.95371 2.14688 1.90371 2.2 1.85371 2.25312L1.85215 2.25469C1.82715 2.28125 1.80371 2.30781 1.78027 2.33437L1.77871 2.33594C1.75684 2.35938 1.73496 2.38437 1.71465 2.40937C1.7084 2.41719 1.70215 2.42344 1.6959 2.43125C1.67871 2.45 1.66309 2.47031 1.6459 2.48906C1.64277 2.49375 1.63809 2.49688 1.63496 2.50156C0.614648 3.71719 -0.000976562 5.28594 -0.000976562 7C-0.000976562 8.71406 0.614648 10.2828 1.63652 11.5C1.63965 11.5047 1.64434 11.5094 1.64746 11.5141L1.6959 11.5719C1.70215 11.5797 1.7084 11.5859 1.71465 11.5938L1.77871 11.6672C1.77871 11.6687 1.78027 11.6688 1.78027 11.6703C1.80371 11.6969 1.82715 11.7234 1.85215 11.7484L1.85371 11.75C1.90371 11.8031 1.95371 11.8562 2.00371 11.9078L2.00527 11.9094C2.03027 11.9344 2.05371 11.9594 2.07871 11.9828L2.0834 11.9875C2.13496 12.0391 2.18809 12.0891 2.24121 12.1375C3.49277 13.2937 5.16309 14 6.99902 14C8.83496 14 10.5053 13.2937 11.7537 12.1375C11.8069 12.0887 11.859 12.0387 11.91 11.9875L11.9146 11.9828C11.9396 11.9578 11.9646 11.9344 11.9881 11.9094L11.9896 11.9078C12.0412 11.8562 12.0912 11.8031 12.1396 11.75L12.1412 11.7484C12.1646 11.7219 12.1896 11.6969 12.2131 11.6703C12.2131 11.6688 12.2146 11.6687 12.2146 11.6672C12.2365 11.6438 12.2584 11.6187 12.2787 11.5938C12.285 11.5859 12.2912 11.5797 12.2975 11.5719C12.3151 11.553 12.3323 11.5338 12.349 11.5141ZM12.4131 9.28594C12.1975 9.79531 11.9131 10.2672 11.5662 10.6953C11.1756 10.3577 10.7484 10.0647 10.2928 9.82187C10.474 9.08906 10.5865 8.28438 10.6162 7.4375H12.8584C12.8115 8.07656 12.6615 8.69687 12.4131 9.28594ZM12.8584 6.5625H10.6162C10.5865 5.71562 10.474 4.91094 10.2928 4.17812C10.7506 3.93437 11.1771 3.64062 11.5662 3.30469C12.3202 4.23277 12.7713 5.3699 12.8584 6.5625ZM9.28496 1.58594C9.90527 1.84844 10.4693 2.21094 10.9662 2.66719C10.6776 2.91296 10.3669 3.13159 10.0381 3.32031C9.79277 2.61719 9.47871 2.00625 9.11309 1.51719C9.1709 1.53906 9.22871 1.5625 9.28496 1.58594ZM7.86934 12.5328C7.72559 12.6453 7.58184 12.7312 7.43652 12.7891V9.89062C8.05651 9.93388 8.6662 10.0719 9.24434 10.3C9.11465 10.6844 8.96465 11.0391 8.79121 11.3594C8.51934 11.8656 8.20059 12.2703 7.86934 12.5328ZM8.79121 2.64062C8.96309 2.9625 9.11465 3.31719 9.24434 3.7C8.6662 3.92806 8.05651 4.06612 7.43652 4.10938V1.2125C7.58027 1.27031 7.72559 1.35469 7.86934 1.46875C8.20059 1.72969 8.51934 2.13438 8.79121 2.64062ZM7.43652 9.01406V7.4375H9.74121C9.71621 8.12813 9.63027 8.79844 9.48652 9.43437L9.48184 9.45312C8.82611 9.20447 8.13653 9.05644 7.43652 9.01406ZM7.43652 6.5625V4.98594C8.15215 4.94219 8.83965 4.79063 9.48184 4.54688L9.48652 4.56563C9.63027 5.20156 9.71621 5.87031 9.74121 6.5625H7.43652ZM6.56152 7.4375V9.01406C5.8459 9.05781 5.1584 9.20938 4.51621 9.45312L4.51152 9.43437C4.36777 8.79844 4.28184 8.12969 4.25684 7.4375H6.56152ZM4.25684 6.5625C4.28184 5.87187 4.36777 5.20156 4.51152 4.56563L4.51621 4.54688C5.1584 4.79063 5.84434 4.94219 6.56152 4.98594V6.5625H4.25684ZM6.56152 9.89062V12.7875C6.41777 12.7297 6.27246 12.6453 6.12871 12.5312C5.79746 12.2703 5.47715 11.8641 5.20527 11.3578C5.0334 11.0359 4.88184 10.6812 4.75215 10.2984C5.3334 10.0703 5.93809 9.93437 6.56152 9.89062ZM6.56152 4.10938C5.94154 4.06612 5.33185 3.92806 4.75371 3.7C4.8834 3.31562 5.0334 2.96094 5.20684 2.64062C5.47871 2.13438 5.79746 1.72812 6.13027 1.46719C6.27402 1.35469 6.41777 1.26875 6.56309 1.21094V4.10938H6.56152ZM4.71309 1.58594C4.7709 1.5625 4.82715 1.53906 4.88496 1.51719C4.51934 2.00625 4.20527 2.61719 3.95996 3.32031C3.63184 3.13281 3.3209 2.91406 3.03184 2.66719C3.52871 2.21094 4.09277 1.84844 4.71309 1.58594ZM1.58496 4.71406C1.80059 4.20469 2.08496 3.73281 2.43184 3.30469C2.8209 3.64062 3.24746 3.93437 3.70527 4.17812C3.52402 4.91094 3.41152 5.71562 3.38184 6.5625H1.13965C1.18652 5.92344 1.33652 5.30313 1.58496 4.71406ZM1.13965 7.4375H3.38184C3.41152 8.28438 3.52402 9.08906 3.70527 9.82187C3.24962 10.0647 2.82249 10.3577 2.43184 10.6953C1.67782 9.76723 1.22679 8.6301 1.13965 7.4375ZM4.71309 12.4141C4.09277 12.1516 3.52871 11.7891 3.03184 11.3328C3.3209 11.0859 3.63184 10.8687 3.95996 10.6797C4.20527 11.3828 4.51934 11.9938 4.88496 12.4828C4.82715 12.4609 4.76934 12.4375 4.71309 12.4141ZM9.28496 12.4141C9.22715 12.4375 9.1709 12.4609 9.11309 12.4828C9.47871 11.9938 9.79277 11.3828 10.0381 10.6797C10.3662 10.8672 10.6771 11.0859 10.9662 11.3328C10.4721 11.7872 9.90335 12.1529 9.28496 12.4141Z"
      fill="white"
    />
  </g>
  <defs>
    <clipPath id="clip0_612_13653">
      <rect width="14" height="14" fill="white" transform="translate(-0.000976562)" />
    </clipPath>
  </defs>
</svg>