<svg width="100%" height="100" viewBox="0 0 60 60" fill="none" xmlns="http://www.w3.org/2000/svg">
<g clip-path="url(#clip0_653_6886)">
<path d="M27.9765 1.2529L1.7541 27.4538C0.344337 28.8624 0.344337 31.1375 1.7541 32.5461L27.9765 58.747C29.3863 60.1556 31.6633 60.1556 33.0731 58.747L44.0678 47.7613C45.3303 46.4998 45.3303 44.4545 44.0678 43.193C42.8052 41.9315 40.7582 41.9315 39.4957 43.193L31.1607 51.5211C30.8098 51.8717 30.2773 51.8717 29.9264 51.5211L8.98588 30.5979C8.63499 30.2473 8.63499 29.7152 8.98588 29.3646L29.9264 8.44131C30.2773 8.09071 30.8098 8.09071 31.1607 8.44131L39.4957 16.7694C40.7582 18.0309 42.8052 18.0309 44.0678 16.7694C45.3303 15.5079 45.3303 13.4626 44.0678 12.2011L33.0743 1.21666C31.6587 -0.161456 29.3809 -0.150299 27.9765 1.2529Z" fill="url(#paint0_linear_653_6886)"/>
<path d="M27.9765 1.2529L1.7541 27.4538C0.344337 28.8624 0.344337 31.1375 1.7541 32.5461L27.9765 58.747C29.3863 60.1556 31.6633 60.1556 33.0731 58.747L44.0678 47.7613C45.3303 46.4998 45.3303 44.4545 44.0678 43.193C42.8052 41.9315 40.7582 41.9315 39.4957 43.193L31.1607 51.5211C30.8098 51.8717 30.2773 51.8717 29.9264 51.5211L8.98588 30.5979C8.63499 30.2473 8.63499 29.7152 8.98588 29.3646L29.9264 8.44131C30.8001 7.6881 32.2256 6.16249 34.319 5.80568C35.8748 5.5405 37.5757 6.12415 39.4217 7.55662C38.1875 6.32347 36.0717 4.21015 33.0743 1.21666C31.6587 -0.161456 29.3809 -0.150299 27.9765 1.2529Z" fill="url(#paint1_linear_653_6886)"/>
<path d="M46.6058 40.7562C47.8684 42.0177 49.9153 42.0177 51.1779 40.7562L59.2881 32.6527C60.6979 31.2441 60.6979 28.9689 59.2883 27.5605L51.1074 19.4153C49.8418 18.1553 47.7942 18.1571 46.5309 19.4193C45.2683 20.6809 45.2683 22.7262 46.5309 23.9877L52.0563 29.5086C52.4072 29.8592 52.4072 30.3913 52.0563 30.7419L46.6058 36.1879C45.3433 37.4494 45.3433 39.4947 46.6058 40.7562Z" fill="url(#paint2_linear_653_6886)"/>
<path d="M30.6557 37.2051C34.5659 37.2051 37.7358 34.0379 37.7358 30.1309C37.7358 26.2239 34.5659 23.0567 30.6557 23.0567C26.7455 23.0567 23.5757 26.2239 23.5757 30.1309C23.5757 34.0379 26.7455 37.2051 30.6557 37.2051Z" fill="url(#paint3_linear_653_6886)"/>
</g>
<defs>
<linearGradient id="paint0_linear_653_6886" x1="28.2192" y1="0.191713" x2="53.1382" y2="15.4093" gradientUnits="userSpaceOnUse">
<stop stop-color="#4285EB"/>
<stop offset="1" stop-color="#2EC7FF"/>
</linearGradient>
<linearGradient id="paint1_linear_653_6886" x1="31.5616" y1="0.191711" x2="19.2539" y2="63.801" gradientUnits="userSpaceOnUse">
<stop stop-color="#29CDFF"/>
<stop offset="0.378601" stop-color="#148EFF"/>
<stop offset="1" stop-color="#0A60FF"/>
</linearGradient>
<linearGradient id="paint2_linear_653_6886" x1="55.8714" y1="15.4574" x2="39.8572" y2="40.5023" gradientUnits="userSpaceOnUse">
<stop stop-color="#FA816E"/>
<stop offset="0.414726" stop-color="#F74A5C"/>
<stop offset="1" stop-color="#F51D2C"/>
</linearGradient>
<linearGradient id="paint3_linear_653_6886" x1="33.2227" y1="18.007" x2="27.8943" y2="39.3214" gradientUnits="userSpaceOnUse">
<stop stop-color="#FA8E7D"/>
<stop offset="0.512635" stop-color="#F74A5C"/>
<stop offset="1" stop-color="#F51D2C"/>
</linearGradient>
<clipPath id="clip0_653_6886">
<rect width="60" height="60" fill="white" transform="translate(0.5)"/>
</clipPath>
</defs>
</svg>
