<svg width="100%" height="100%" viewBox="0 0 16 16" fill="none" xmlns="http://www.w3.org/2000/svg">
  <path
    d="M14.368 0.933594C14.3015 0.933594 14.2333 0.945842 14.165 0.973839L4.07929 5.02633H1.20965C1.05567 5.02633 0.929688 5.15582 0.929688 5.3168V10.5486C0.929688 10.7096 1.05567 10.8391 1.20965 10.8391H2.98918C2.92444 11.0421 2.88944 11.2573 2.88944 11.476C2.88944 12.6291 3.83083 13.567 4.98918 13.567C5.95856 13.567 6.77571 12.9091 7.01718 12.0202L14.1668 14.8933C14.235 14.9196 14.3033 14.9336 14.3698 14.9336C14.6655 14.9336 14.9297 14.6851 14.9297 14.3527V1.51452C14.9279 1.18206 14.6655 0.933594 14.368 0.933594ZM4.98918 12.3124C4.52549 12.3124 4.14929 11.938 4.14929 11.476C4.14929 11.2801 4.21753 11.0928 4.34176 10.9441L5.82733 11.5408C5.79233 11.9712 5.43013 12.3124 4.98918 12.3124ZM13.6681 13.3343L4.54824 9.67025L4.32251 9.57926H2.18953V6.28617H4.32251L4.54824 6.19519L13.6681 2.53114V13.3343Z"
    fill="black"
    fill-opacity="0.85"
  />
</svg>