<svg width="100%" height="100%" viewBox="0 0 12 12" fill="none" xmlns="http://www.w3.org/2000/svg">
  <path
    d="M10.2536 9.08737C10.022 8.53881 9.68589 8.04053 9.26404 7.62029C8.84348 7.19884 8.34529 6.86282 7.79697 6.63079C7.79206 6.62833 7.78715 6.6271 7.78224 6.62465C8.54708 6.07219 9.04429 5.1723 9.04429 4.15701C9.04429 2.47509 7.68157 1.11237 5.99965 1.11237C4.31773 1.11237 2.955 2.47509 2.955 4.15701C2.955 5.1723 3.45221 6.07219 4.21706 6.62587C4.21215 6.62833 4.20724 6.62956 4.20233 6.63201C3.65233 6.86404 3.1588 7.19675 2.73525 7.62152C2.3138 8.04208 1.97778 8.54028 1.74574 9.0886C1.51779 9.6254 1.39485 10.2009 1.38358 10.784C1.38325 10.7971 1.38555 10.8102 1.39034 10.8224C1.39512 10.8346 1.40231 10.8457 1.41146 10.8551C1.42061 10.8644 1.43155 10.8719 1.44363 10.877C1.45571 10.8821 1.46868 10.8847 1.48179 10.8847H2.2184C2.27241 10.8847 2.31538 10.8417 2.31661 10.7889C2.34116 9.84117 2.72175 8.95355 3.39451 8.28079C4.09061 7.58469 5.01505 7.20166 5.99965 7.20166C6.98425 7.20166 7.90869 7.58469 8.60478 8.28079C9.27755 8.95355 9.65813 9.84117 9.68268 10.7889C9.68391 10.843 9.72688 10.8847 9.7809 10.8847H10.5175C10.5306 10.8847 10.5436 10.8821 10.5557 10.877C10.5677 10.8719 10.5787 10.8644 10.5878 10.8551C10.597 10.8457 10.6042 10.8346 10.609 10.8224C10.6137 10.8102 10.616 10.7971 10.6157 10.784C10.6034 10.1972 10.4819 9.62632 10.2536 9.08737ZM5.99965 6.26862C5.43614 6.26862 4.90579 6.04887 4.50679 5.64987C4.10779 5.25087 3.88804 4.72052 3.88804 4.15701C3.88804 3.59351 4.10779 3.06315 4.50679 2.66416C4.90579 2.26516 5.43614 2.04541 5.99965 2.04541C6.56315 2.04541 7.09351 2.26516 7.4925 2.66416C7.8915 3.06315 8.11125 3.59351 8.11125 4.15701C8.11125 4.72052 7.8915 5.25087 7.4925 5.64987C7.09351 6.04887 6.56315 6.26862 5.99965 6.26862Z"
    fill="#000000"
    fill-opacity="0.85"
  />
</svg>