<svg width="100%" height="100%" viewBox="0 0 15 15" fill="none" xmlns="http://www.w3.org/2000/svg">
  <path
    d="M7.30248 7.41754C6.68717 7.41754 6.08566 7.23507 5.57404 6.89322C5.06242 6.55137 4.66367 6.06548 4.42819 5.497C4.19272 4.92851 4.13111 4.30297 4.25115 3.69948C4.3712 3.09598 4.6675 2.54163 5.1026 2.10654C5.53769 1.67144 6.09204 1.37514 6.69554 1.25509C7.29903 1.13505 7.92457 1.19666 8.49306 1.43213C9.06154 1.66761 9.54743 2.06636 9.88928 2.57798C10.2311 3.0896 10.4136 3.69111 10.4136 4.30642C10.4136 5.13154 10.0858 5.92287 9.50237 6.50631C8.91893 7.08976 8.1276 7.41754 7.30248 7.41754ZM7.30248 2.11976C6.86297 2.11976 6.43333 2.25009 6.06788 2.49427C5.70244 2.73845 5.41761 3.08551 5.24942 3.49157C5.08122 3.89763 5.03722 4.34445 5.12296 4.77551C5.20871 5.20658 5.42035 5.60255 5.73114 5.91333C6.04192 6.22411 6.43788 6.43576 6.86895 6.5215C7.30002 6.60725 7.74683 6.56324 8.15289 6.39505C8.55895 6.22685 8.90601 5.94202 9.15019 5.57658C9.39438 5.21114 9.52471 4.78149 9.52471 4.34198C9.52471 4.05015 9.46723 3.76119 9.35555 3.49157C9.24387 3.22196 9.08018 2.97698 8.87383 2.77063C8.66748 2.56428 8.4225 2.40059 8.15289 2.28892C7.88328 2.17724 7.59431 2.11976 7.30248 2.11976ZM9.77804 7.95531C7.37291 7.41378 4.85663 7.67446 2.6136 8.69754C2.3051 8.84489 2.04482 9.07686 1.86306 9.36642C1.6813 9.65598 1.58554 9.99121 1.58693 10.3331V12.9775C1.58693 13.0359 1.59842 13.0937 1.62076 13.1476C1.6431 13.2015 1.67583 13.2505 1.7171 13.2918C1.75837 13.3331 1.80737 13.3658 1.86129 13.3882C1.91521 13.4105 1.97301 13.422 2.03137 13.422C2.08974 13.422 2.14753 13.4105 2.20145 13.3882C2.25538 13.3658 2.30437 13.3331 2.34564 13.2918C2.38691 13.2505 2.41965 13.2015 2.44199 13.1476C2.46432 13.0937 2.47582 13.0359 2.47582 12.9775V10.3331C2.47195 10.1601 2.51867 9.98968 2.61025 9.84284C2.70184 9.69599 2.83429 9.57907 2.99137 9.50642C4.34256 8.88238 5.81417 8.56227 7.30248 8.56865C8.1364 8.56767 8.96745 8.66614 9.77804 8.86198V7.95531ZM9.84026 12.182H12.5692V12.8042H9.84026V12.182Z"
    fill="black"
  />
  <path
    d="M14.7424 9.54309H12.4447V10.432H14.298V14.152H8.00022V10.432H10.8002V10.6186C10.8002 10.7365 10.847 10.8496 10.9304 10.9329C11.0137 11.0163 11.1268 11.0631 11.2447 11.0631C11.3625 11.0631 11.4756 11.0163 11.5589 10.9329C11.6423 10.8496 11.6891 10.7365 11.6891 10.6186V8.88976C11.6891 8.77188 11.6423 8.65884 11.5589 8.57549C11.4756 8.49214 11.3625 8.44531 11.2447 8.44531C11.1268 8.44531 11.0137 8.49214 10.9304 8.57549C10.847 8.65884 10.8002 8.77188 10.8002 8.88976V9.54309H7.55577C7.4379 9.54309 7.32485 9.58992 7.2415 9.67327C7.15815 9.75661 7.11133 9.86966 7.11133 9.98753V14.5964C7.11133 14.7143 7.15815 14.8273 7.2415 14.9107C7.32485 14.994 7.4379 15.0409 7.55577 15.0409H14.7424C14.8603 15.0409 14.9734 14.994 15.0567 14.9107C15.1401 14.8273 15.1869 14.7143 15.1869 14.5964V9.98753C15.1869 9.86966 15.1401 9.75661 15.0567 9.67327C14.9734 9.58992 14.8603 9.54309 14.7424 9.54309Z"
    fill="black"
  />
</svg>