<svg width="100%" height="100%" viewBox="0 0 14 14" fill="none" xmlns="http://www.w3.org/2000/svg">
  <path
    d="M4.90277 3.13715H6.28592V9.86405C6.28592 9.95154 6.3533 10.0231 6.43565 10.0231H7.55865C7.641 10.0231 7.70838 9.95154 7.70838 9.86405V3.13715H9.09528C9.22068 3.13715 9.28993 2.98404 9.21319 2.88064L7.11694 0.0610349C7.10293 0.0420219 7.08504 0.0266453 7.06461 0.0160705C7.04418 0.00549569 7.02175 0 6.99902 0C6.9763 0 6.95387 0.00549569 6.93344 0.0160705C6.91301 0.0266453 6.89512 0.0420219 6.88111 0.0610349L4.78485 2.87865C4.70811 2.98404 4.77737 3.13715 4.90277 3.13715ZM13.8493 9.26751H12.7263C12.6439 9.26751 12.5766 9.3391 12.5766 9.42659V12.4888H1.42148V9.42659C1.42148 9.3391 1.3541 9.26751 1.27175 9.26751H0.148756C0.0664031 9.26751 -0.000976562 9.3391 -0.000976562 9.42659V13.3637C-0.000976562 13.7157 0.26667 14 0.597954 14H13.4001C13.7314 14 13.999 13.7157 13.999 13.3637V9.42659C13.999 9.3391 13.9316 9.26751 13.8493 9.26751Z"
    fill="white"
  />
</svg>